<?xml version="1.0" encoding="UTF-8"?>
<svg version="1.1" xmlns="http://www.w3.org/2000/svg" width="350" height="480">
<path d="M0 0 C-0.13277344 0.59167969 -0.26554688 1.18335938 -0.40234375 1.79296875 C-0.57894531 2.58316406 -0.75554687 3.37335937 -0.9375 4.1875 C-1.11152344 4.96480469 -1.28554687 5.74210938 -1.46484375 6.54296875 C-1.64144531 7.35378906 -1.81804687 8.16460937 -2 9 C-2.17917969 9.7528125 -2.35835937 10.505625 -2.54296875 11.28125 C-6.2197588 33.15343698 2.23572877 51.58529119 14.125 69.375 C22.3420218 80.86753565 31.34885296 91.61125194 41.45605469 101.47973633 C68.76873074 128.2530163 90.70536025 166.71148798 101.13305664 203.31201172 C101.68449099 205.23948239 102.257238 207.16081361 102.83007812 209.08203125 C107.71155369 225.73342892 109.52062115 241.83255847 109.44604492 259.17504883 C109.43755663 262.16753609 109.46639401 265.15809103 109.49804688 268.15039062 C109.61169345 299.19354777 100.87964754 325.5385838 87 353 C101.8856359 347.31852946 110.64913844 328.27101852 118 315 C122.26459196 307.36922346 122.26459196 307.36922346 124.890625 306.05078125 C127 306 127 306 129.11230469 307.65161133 C131.44480591 310.5533611 131.45414929 311.84727199 131.3125 315.5234375 C131.27560059 316.61575684 131.23870117 317.70807617 131.20068359 318.83349609 C131.10134521 320.58654053 131.10134521 320.58654053 131 322.375 C130.94021973 323.58365723 130.88043945 324.79231445 130.81884766 326.03759766 C128.62340669 363.5475699 114.90190487 394.97645402 90.4453125 423.16015625 C88.23356191 425.72875478 86.10810263 428.34637958 84 431 C82.375 432.8125 82.375 432.8125 81 434 C80.34 434 79.68 434 79 434 C78.67 434.99 78.34 435.98 78 437 C75.95327439 438.80419454 73.91518502 440.47472224 71.75 442.125 C70.79565063 442.85795288 70.79565063 442.85795288 69.82202148 443.60571289 C67.88853536 445.0802511 65.94508127 446.54080865 64 448 C62.50919922 449.13888672 62.50919922 449.13888672 60.98828125 450.30078125 C44.61389461 462.25911168 15.38855435 480.51630051 -6 478 C-8.54845435 475.45154565 -8.25281522 474.54485596 -8.26069641 471.00968933 C-8.26778122 469.95398239 -8.27486603 468.89827545 -8.28216553 467.81057739 C-8.27968811 466.64743011 -8.27721069 465.48428284 -8.2746582 464.28588867 C-8.27976913 463.06467819 -8.28488007 461.84346771 -8.29014587 460.58525085 C-8.30168976 457.22968743 -8.30411117 453.8743705 -8.30158257 450.51880431 C-8.30051434 447.71820106 -8.30539269 444.9176207 -8.310188 442.11702234 C-8.32129413 435.50825472 -8.32171506 428.89954393 -8.31567383 422.29077148 C-8.30963842 415.47430182 -8.32193137 408.65803881 -8.3432439 401.84160441 C-8.36086625 395.99014094 -8.36686008 390.13874319 -8.36360615 384.28725415 C-8.36179341 380.79218103 -8.36442799 377.29725514 -8.37832069 373.80220604 C-8.39324192 369.90215344 -8.38392328 366.00236316 -8.37231445 362.10229492 C-8.37995819 360.94522034 -8.38760193 359.78814575 -8.39547729 358.5960083 C-8.38846298 357.53184189 -8.38144867 356.46767548 -8.3742218 355.3712616 C-8.37438954 354.44930087 -8.37455729 353.52734015 -8.37473011 352.57744122 C-7.91880944 349.44156104 -6.86613277 347.54202065 -5 345 C-2.7668457 344.40405273 -2.7668457 344.40405273 -0.17578125 344.43359375 C0.77103516 344.42263672 1.71785156 344.41167969 2.69335938 344.40039062 C3.68142578 344.41263672 4.66949219 344.42488281 5.6875 344.4375 C12.97823897 344.50056028 18.87348609 344.32260637 25 340 C28.55883153 336.0761601 29.5482351 332.53955407 30.21484375 327.44140625 C29.63233421 320.82197971 25.62567202 315.75784823 21.6875 310.6875 C20.90125244 309.65761963 20.90125244 309.65761963 20.09912109 308.60693359 C18.40804433 306.39782447 16.70542338 304.19804779 15 302 C14.43780762 301.27280762 13.87561523 300.54561523 13.29638672 299.79638672 C9.81033152 295.28895225 6.30844368 290.79406776 2.79980469 286.30419922 C-0.22176684 282.4358335 -3.23588445 278.56167606 -6.25 274.6875 C-6.83257568 273.93952148 -7.41515137 273.19154297 -8.01538086 272.42089844 C-11.08906716 268.47131825 -14.14365416 264.50839632 -17.17675781 260.52758789 C-23.53625361 251.12714297 -23.53625361 251.12714297 -32 244 C-33.97159203 243.72558771 -33.97159203 243.72558771 -36.1875 243.6875 C-36.92355469 243.65011719 -37.65960938 243.61273438 -38.41796875 243.57421875 C-45.01735195 244.66246802 -48.89521942 248.53478692 -52.6875 253.75 C-53.10338379 254.31219238 -53.51926758 254.87438477 -53.94775391 255.45361328 C-54.84232408 256.66410849 -55.73150812 257.8785996 -56.61572266 259.09667969 C-59.00358101 262.37987965 -61.44117207 265.62581404 -63.875 268.875 C-64.37588135 269.5460376 -64.8767627 270.2170752 -65.39282227 270.90844727 C-69.3678067 276.21371549 -73.47550766 281.40089638 -77.63574219 286.56152344 C-81.68135091 291.58338397 -85.6334848 296.66844049 -89.54296875 301.796875 C-91.25081055 304.03535533 -92.98551974 306.24965339 -94.73828125 308.453125 C-95.18993652 309.02595215 -95.6415918 309.5987793 -96.10693359 310.18896484 C-97.35694926 311.77292965 -98.61379131 313.35150049 -99.87109375 314.9296875 C-103.71511598 320.47354341 -105.66891921 325.08255732 -104.5625 331.859375 C-103.50864445 335.86988086 -101.83805821 338.6912181 -98.42724609 341.11987305 C-92.41494323 344.4401119 -86.94995961 344.52572908 -80.1875 344.5 C-78.1393107 344.49235275 -76.09096308 344.50197393 -74.04296875 344.53125 C-72.69755005 344.52448242 -72.69755005 344.52448242 -71.32495117 344.51757812 C-69 345 -69 345 -67.37807941 346.69959068 C-65.72230848 349.4635467 -65.62519999 351.0823855 -65.6257782 354.28897095 C-65.61876389 355.36017685 -65.61174957 356.43138275 -65.60452271 357.53504944 C-65.61216644 358.70507004 -65.61981018 359.87509064 -65.62768555 361.08056641 C-65.62403488 362.31664139 -65.62038422 363.55271637 -65.61662292 364.82624817 C-65.60990618 368.21260237 -65.61662947 371.59840707 -65.62995505 374.98470736 C-65.64127386 378.52718936 -65.63716184 382.06965721 -65.63520813 385.6121521 C-65.63432552 391.55886567 -65.64540051 397.50546516 -65.66381836 403.45214844 C-65.68500498 410.33230601 -65.68849156 417.21229671 -65.6822564 424.0924803 C-65.67656763 430.70797091 -65.68220138 437.32340262 -65.69342995 443.93888474 C-65.69808042 446.75624045 -65.69894788 449.57356021 -65.6968441 452.39091873 C-65.69461577 456.3200836 -65.70904939 460.24908878 -65.7253418 464.17822266 C-65.72286438 465.35229172 -65.72038696 466.52636078 -65.71783447 467.73600769 C-65.72491928 468.80157394 -65.73200409 469.8671402 -65.73930359 470.96499634 C-65.74238289 472.35925056 -65.74238289 472.35925056 -65.74552441 473.78167152 C-66 476 -66 476 -68 478 C-101.71325139 476.2014497 -134.41843625 453.45700941 -158 431 C-158.70640625 430.34644531 -159.4128125 429.69289063 -160.140625 429.01953125 C-180.63193724 409.48614621 -194.38548076 382.97354573 -202 356 C-202.38961914 354.6389917 -202.38961914 354.6389917 -202.78710938 353.25048828 C-206.6171254 339.24729988 -207.46990143 325.49570967 -207.5 311.0625 C-207.50458221 310.24896057 -207.50916443 309.43542114 -207.5138855 308.597229 C-207.58105296 278.54187735 -199.28519591 251.67039957 -183.125 226.3125 C-182.67302246 225.59964844 -182.22104492 224.88679687 -181.75537109 224.15234375 C-177.83688687 218.24029599 -177.83688687 218.24029599 -174 217 C-174 216.34 -174 215.68 -174 215 C-169.52941176 211 -169.52941176 211 -167 211 C-167 210.34 -167 209.68 -167 209 C-165.171875 207.4921875 -165.171875 207.4921875 -162.75 205.875 C-161.96109375 205.33617187 -161.1721875 204.79734375 -160.359375 204.2421875 C-158 203 -158 203 -154 203 C-153.40246421 207.63090239 -155.14567067 210.79602805 -157.04296875 214.87890625 C-160.18601293 221.84491845 -159.97639602 230.06991114 -157.4375 237.1875 C-154.84554781 243.02398809 -151.05460038 247.198569 -145.5625 250.4375 C-138.02398358 252.09229629 -132.55715013 250.87369595 -126 247 C-120.176807 242.91507357 -115.42659506 238.53324382 -111 233 C-110.34 233 -109.68 233 -109 233 C-108.72792725 232.40687012 -108.45585449 231.81374023 -108.17553711 231.20263672 C-107.02881907 229.05399909 -105.83382802 227.54150911 -104.19140625 225.7578125 C-88.86407731 208.27674963 -81.87776514 184.35302329 -81.37109375 161.43359375 C-81 159 -81 159 -79.59375 157.16015625 C-78 156 -78 156 -76.0625 156 C-70.56146164 158.66717011 -68.06756073 165.36243888 -65.5625 170.625 C-65.16998047 171.44661621 -64.77746094 172.26823242 -64.37304688 173.11474609 C-60.90466299 180.66636374 -58.75210443 188.34036574 -56.875 196.4140625 C-56.37913187 199.79397799 -56.37913187 199.79397799 -55 201 C-54.3601097 199.13002931 -53.73922948 197.25355587 -53.125 195.375 C-52.77695313 194.33085937 -52.42890625 193.28671875 -52.0703125 192.2109375 C-48.27709368 178.42454908 -48.7228592 164.35168039 -48.8125 150.1875 C-48.81935191 147.97990012 -48.82586074 145.77229915 -48.83203125 143.56469727 C-48.88749686 129.80367971 -49.21202429 116.08744154 -49.89306641 102.34277344 C-51.32408356 70.9910826 -45.9057286 39.41140012 -24.375 15.375 C-9.16990983 -0.99636221 -9.16990983 -0.99636221 0 0 Z " fill="#FEBB2A" transform="translate(213,1)"/>
<path d="M0 0 C32.40821186 27.11707523 57.64014796 69.97266336 69.13305664 110.31201172 C69.68449099 112.23948239 70.257238 114.16081361 70.83007812 116.08203125 C75.71155369 132.73342892 77.52062115 148.83255847 77.44604492 166.17504883 C77.43755663 169.16753609 77.46639401 172.15809103 77.49804688 175.15039062 C77.61169345 206.19354777 68.87964754 232.5385838 55 260 C69.8856359 254.31852946 78.64913844 235.27101852 86 222 C90.26459196 214.36922346 90.26459196 214.36922346 92.890625 213.05078125 C95 213 95 213 97.11230469 214.65161133 C99.44480591 217.5533611 99.45414929 218.84727199 99.3125 222.5234375 C99.25715088 224.1619165 99.25715088 224.1619165 99.20068359 225.83349609 C99.10134521 227.58654053 99.10134521 227.58654053 99 229.375 C98.94021973 230.58365723 98.88043945 231.79231445 98.81884766 233.03759766 C96.62340669 270.5475699 82.90190487 301.97645402 58.4453125 330.16015625 C56.23356191 332.72875478 54.10810263 335.34637958 52 338 C50.375 339.8125 50.375 339.8125 49 341 C48.34 341 47.68 341 47 341 C46.67 341.99 46.34 342.98 46 344 C43.95327439 345.80419454 41.91518502 347.47472224 39.75 349.125 C38.79565063 349.85795288 38.79565063 349.85795288 37.82202148 350.60571289 C35.88853536 352.0802511 33.94508127 353.54080865 32 355 C31.00613281 355.75925781 30.01226562 356.51851563 28.98828125 357.30078125 C12.61389461 369.25911168 -16.61144565 387.51630051 -38 385 C-40.54845435 382.45154565 -40.25281522 381.54485596 -40.26069641 378.00968933 C-40.26778122 376.95398239 -40.27486603 375.89827545 -40.28216553 374.81057739 C-40.27968811 373.64743011 -40.27721069 372.48428284 -40.2746582 371.28588867 C-40.27976913 370.06467819 -40.28488007 368.84346771 -40.29014587 367.58525085 C-40.30168976 364.22968743 -40.30411117 360.8743705 -40.30158257 357.51880431 C-40.30051434 354.71820106 -40.30539269 351.9176207 -40.310188 349.11702234 C-40.32129413 342.50825472 -40.32171506 335.89954393 -40.31567383 329.29077148 C-40.30963842 322.47430182 -40.32193137 315.65803881 -40.3432439 308.84160441 C-40.36086625 302.99014094 -40.36686008 297.13874319 -40.36360615 291.28725415 C-40.36179341 287.79218103 -40.36442799 284.29725514 -40.37832069 280.80220604 C-40.39324192 276.90215344 -40.38392328 273.00236316 -40.37231445 269.10229492 C-40.37995819 267.94522034 -40.38760193 266.78814575 -40.39547729 265.5960083 C-40.38846298 264.53184189 -40.38144867 263.46767548 -40.3742218 262.3712616 C-40.37438954 261.44930087 -40.37455729 260.52734015 -40.37473011 259.57744122 C-39.91880944 256.44156104 -38.86613277 254.54202065 -37 252 C-34.7668457 251.40405273 -34.7668457 251.40405273 -32.17578125 251.43359375 C-31.22896484 251.42263672 -30.28214844 251.41167969 -29.30664062 251.40039062 C-28.31857422 251.41263672 -27.33050781 251.42488281 -26.3125 251.4375 C-19.02176103 251.50056028 -13.12651391 251.32260637 -7 247 C-3.44116847 243.0761601 -2.4517649 239.53955407 -1.78515625 234.44140625 C-2.38647529 227.60823533 -6.67599234 222.33698555 -10.6875 217.0625 C-11.19861328 216.37865234 -11.70972656 215.69480469 -12.23632812 214.99023438 C-13.48454349 213.3220587 -14.74138634 211.66034434 -16 210 C-15.154375 209.03707031 -14.30875 208.07414063 -13.4375 207.08203125 C-9.74511073 202.77099343 -6.36261399 198.25786508 -3 193.6875 C-2.40960938 192.89666016 -1.81921875 192.10582031 -1.2109375 191.29101562 C4.58977672 183.42683148 9.73303603 175.32039052 13.5625 166.3125 C13.85350586 165.63751465 14.14451172 164.9625293 14.44433594 164.26708984 C17.38753533 157.30734606 19.74172768 150.2081386 22 143 C22.29777344 142.14277344 22.59554687 141.28554687 22.90234375 140.40234375 C27.37650457 127.06889932 27.4429491 112.49374596 27.4375 98.5625 C27.43823517 97.73605988 27.43897034 96.90961975 27.43972778 96.05813599 C27.37525445 68.29351198 20.5111201 41.76631264 7.46875 17.2265625 C7.01282471 16.36756348 6.55689941 15.50856445 6.0871582 14.62353516 C5.16640882 12.89767211 4.23805285 11.17584202 3.30151367 9.45849609 C2.87588135 8.66781738 2.45024902 7.87713867 2.01171875 7.0625 C1.43103638 5.99708984 1.43103638 5.99708984 0.83862305 4.91015625 C0 3 0 3 0 0 Z " fill="#FE5B15" transform="translate(245,94)"/>
<path d="M0 0 C0.33 0 0.66 0 1 0 C1.01401855 0.94915283 1.01401855 0.94915283 1.02832031 1.91748047 C1.73405442 40.17242069 14.00042483 72.3546383 41 100 C41.81855469 100.84433594 42.63710938 101.68867188 43.48046875 102.55859375 C59.74674461 118.32048897 81.01477495 127.97177801 102.3125 134.875 C103.58154175 135.28649292 103.58154175 135.28649292 104.8762207 135.70629883 C110.14176714 137.32937591 115.44287924 138.53975193 120.84838867 139.59423828 C121.53866905 139.73052139 122.22894943 139.8668045 122.9401474 140.00721741 C124.62642273 140.33988428 126.31316433 140.6701862 128 141 C128.04626791 152.56960037 128.08184092 164.13917885 128.10362434 175.70885277 C128.1140774 181.08067458 128.12826429 186.45243327 128.15087891 191.82421875 C128.17255311 197.00483448 128.18455715 202.18538935 128.18975449 207.36604691 C128.19346002 209.34607527 128.20069562 211.32610018 128.21146011 213.30610275 C128.22590302 216.07181846 128.22798098 218.83728021 128.22705078 221.60302734 C128.23424133 222.42805252 128.24143188 223.2530777 128.24884033 224.10310364 C128.22810432 229.77189568 128.22810432 229.77189568 126 232 C92.28674861 230.2014497 59.58156375 207.45700941 36 185 C35.29359375 184.34644531 34.5871875 183.69289063 33.859375 183.01953125 C13.36806276 163.48614621 -0.38548076 136.97354573 -8 110 C-8.25974609 109.09266113 -8.51949219 108.18532227 -8.78710938 107.25048828 C-12.6171254 93.24729988 -13.46990143 79.49570967 -13.5 65.0625 C-13.50458221 64.24896057 -13.50916443 63.43542114 -13.5138855 62.597229 C-13.54684532 47.84873216 -12.06719568 33.19877565 -7.625 19.0625 C-7.41657471 18.37357666 -7.20814941 17.68465332 -6.9934082 16.97485352 C-5.15487714 11.08976848 -2.7912964 5.49944781 0 0 Z " fill="#FD5B15" transform="translate(19,247)"/>
<path d="M0 0 C1.0769298 3.2307894 0.94012652 3.87955016 0.0625 7 C-3.57922074 22.64684152 2.26485601 37.60521854 7.62524414 52.17358398 C11.41378742 62.55008163 12.75377719 72.68615125 8 83 C4.51159739 87.81345476 -0.06345546 91.78447351 -6 93 C-16.47886222 94.09870115 -24.95063686 92.51135276 -33.25 85.875 C-39.49792021 80.00727777 -43.67409265 72.94738047 -44.23828125 64.3828125 C-44.68557005 47.31934933 -39.95315916 31.38719453 -29 18 C-28.34 18 -27.68 18 -27 18 C-26.7628125 17.41992188 -26.525625 16.83984375 -26.28125 16.2421875 C-21.94782882 8.65870043 -8.89749382 -0.62991107 0 0 Z " fill="#FEBA2A" transform="translate(92,62)"/>
<path d="M0 0 C8.37011712 1.4926394 15.03488872 9.57195414 20 16 C20.495 16.99 20.495 16.99 21 18 C21.66 17.67 22.32 17.34 23 17 C22.52047788 25.36683415 21.50680677 30.89700584 15.125 36.75 C9.23735599 41.87571361 3.98519017 42.45043847 -3.64453125 42.3125 C-12.14579436 41.5207642 -17.94825022 37.78863022 -24 32 C-21.63515529 30.81757765 -20.48597623 31.01919665 -17.875 31.1875 C-12.80838678 31.22829399 -9.08269607 30.01804744 -5 27 C-2.57577814 24.11490087 -2.57577814 24.11490087 -1 21 C-0.64035156 20.37738281 -0.28070313 19.75476563 0.08984375 19.11328125 C2.54836786 13.40486262 1.0380085 5.96854888 0 0 Z " fill="#FC5D16" transform="translate(80,113)"/>
<path d="M0 0 C0.33 0 0.66 0 1 0 C0.42981138 6.82495739 -0.52321172 13.47499406 -1.875 20.1875 C-2.03613281 21.03763672 -2.19726562 21.88777344 -2.36328125 22.76367188 C-3.3751144 27.84244679 -4.57668482 32.40300764 -7 37 C-8.485 37.495 -8.485 37.495 -10 38 C-10.0825 39.19625 -10.165 40.3925 -10.25 41.625 C-10.92039143 47.03601654 -13.6791845 51.61849222 -18 55 C-18.99 55 -19.98 55 -21 55 C-21.33 55.66 -21.66 56.32 -22 57 C-23.08380932 58.47352553 -24.19131786 59.92970739 -25.3125 61.375 C-25.90675781 62.14585937 -26.50101563 62.91671875 -27.11328125 63.7109375 C-28.96057639 65.95216928 -30.91321596 67.98231477 -33 70 C-33 65.95335263 -30.94719138 64.11620826 -28.5 61.125 C-13.95639887 42.70620127 -6.45526965 22.30479352 0 0 Z " fill="#F46711" transform="translate(270,227)"/>
<path d="M0 0 C0.33 0 0.66 0 1 0 C1.0093457 0.63276855 1.01869141 1.26553711 1.02832031 1.91748047 C1.42691244 23.52351841 5.10864304 40.82712009 13.14941406 60.82617188 C14.20297775 63.5187468 15.12642412 66.2441833 16 69 C15.34 68.67 14.68 68.34 14 68 C14 67.34 14 66.68 14 66 C13.34 66 12.68 66 12 66 C12 65.34 12 64.68 12 64 C11.401875 63.773125 10.80375 63.54625 10.1875 63.3125 C7.34482057 61.60689234 6.39084625 59.99031944 5 57 C4.8125 54.1875 4.8125 54.1875 5 52 C5.66 52 6.32 52 7 52 C7 50.68 7 49.36 7 48 C5.68 48 4.36 48 3 48 C2.80664062 47.22914063 2.61328125 46.45828125 2.4140625 45.6640625 C2.15367188 44.66117187 1.89328125 43.65828125 1.625 42.625 C1.36976562 41.62726563 1.11453125 40.62953125 0.8515625 39.6015625 C0.17595681 36.87458985 0.17595681 36.87458985 -2 35 C-2.83302034 27.20896549 -1.70428932 19.08347607 -1 11.3125 C-0.90460937 10.21744141 -0.80921875 9.12238281 -0.7109375 7.99414062 C-0.47817635 5.32902543 -0.2411367 2.66436814 0 0 Z " fill="#F96716" transform="translate(19,247)"/>
<path d="M0 0 C0.33 1.32 0.66 2.64 1 4 C0.34 4 -0.32 4 -1 4 C-1 5.32 -1 6.64 -1 8 C-1.66 8 -2.32 8 -3 8 C-3 9.32 -3 10.64 -3 12 C-3.66 12 -4.32 12 -5 12 C-5.33 12.66 -5.66 13.32 -6 14 C-7.08380932 15.47352553 -8.19131786 16.92970739 -9.3125 18.375 C-9.90675781 19.14585937 -10.50101563 19.91671875 -11.11328125 20.7109375 C-12.96057639 22.95216928 -14.91321596 24.98231477 -17 27 C-17 22.92525601 -14.89732886 21.01984372 -12.4375 18 C-7.86559935 12.24312403 -3.80955497 6.2945958 0 0 Z " fill="#F16C12" transform="translate(254,270)"/>
<path d="M0 0 C2 0 2 0 3.4375 1.35546875 C7.79162771 6.46068349 7.79162771 6.46068349 9.0625 9.75 C10.32995871 12.7919009 12.16283858 13.4722977 15 15 C15.33 15.66 15.66 16.32 16 17 C15.67 17.66 15.34 18.32 15 19 C11.05952928 17.48375623 9.34697331 15.1483323 6.9375 11.75 C6.26589844 10.81671875 5.59429687 9.8834375 4.90234375 8.921875 C3.02163635 6.03323201 1.47739976 3.11128423 0 0 Z " fill="#FEAE32" transform="translate(37,318)"/>
<path d="M0 0 C3.85298367 5.7794755 2.63043595 14.7968023 1.32421875 21.43359375 C0.62308588 23.98890739 -0.12642912 26.49888336 -1 29 C-1.33 29 -1.66 29 -2 29 C-1.34 19.43 -0.68 9.86 0 0 Z " fill="#EB6E0D" transform="translate(273,196)"/>
<path d="M0 0 C0.66 0 1.32 0 2 0 C2.33 0.66 2.66 1.32 3 2 C3.99 2.33 4.98 2.66 6 3 C3.36 5.97 0.72 8.94 -2 12 C-2.99 11.67 -3.98 11.34 -5 11 C-5 10.34 -5 9.68 -5 9 C-3.68 9 -2.36 9 -1 9 C-1.020625 7.88625 -1.04125 6.7725 -1.0625 5.625 C-1 2 -1 2 0 0 Z " fill="#FBB137" transform="translate(232,291)"/>
<path d="M0 0 C0.33 0 0.66 0 1 0 C1.33 9.24 1.66 18.48 2 28 C-1 25 -1 25 -1.328125 21.5234375 C-1.3187712 20.14041144 -1.29189161 18.75742312 -1.25 17.375 C-1.23904297 16.66021484 -1.22808594 15.94542969 -1.21679688 15.20898438 C-1.11009489 10.09192808 -0.7241921 5.06934469 0 0 Z " fill="#F8791D" transform="translate(19,247)"/>
<path d="M0 0 C0.66 0 1.32 0 2 0 C2 0.99 2 1.98 2 3 C2.99 3.33 3.98 3.66 5 4 C5.36504603 5.58086048 5.71660506 7.16483907 6.0625 8.75 C6.25972656 9.63171875 6.45695312 10.5134375 6.66015625 11.421875 C7.00298742 14.02266321 6.70340244 15.51848845 6 18 C4.99600476 15.37646482 3.99665555 12.75132205 3 10.125 C2.57074219 9.00544922 2.57074219 9.00544922 2.1328125 7.86328125 C0 2.2265625 0 2.2265625 0 0 Z " fill="#F66816" transform="translate(259,123)"/>
<path d="M0 0 C2.31 1.98 4.62 3.96 7 6 C6.01 6.33 5.02 6.66 4 7 C4 6.34 4 5.68 4 5 C2.68 4.67 1.36 4.34 0 4 C0 2.68 0 1.36 0 0 Z " fill="#F56412" transform="translate(57,345)"/>
<path d="M0 0 C2.18975773 3.28463659 2.99806563 6.20696275 4 10 C3.34 10.66 2.68 11.32 2 12 C0.86235649 7.73383684 0 4.43513689 0 0 Z " fill="#F7781A" transform="translate(25,291)"/>
<path d="M0 0 C3.26954202 0.56371414 4.82575883 1.49962266 7 4 C5.35 3.67 3.7 3.34 2 3 C1.67 4.32 1.34 5.64 1 7 C0.67 4.69 0.34 2.38 0 0 Z " fill="#F27113" transform="translate(80,113)"/>
</svg>
